<svg id="visual" viewBox="0 0 900 600" width="900" height="600" xmlns="http://www.w3.org/2000/svg" xmlns:xlink="http://www.w3.org/1999/xlink" version="1.1"><path d="M0 151L13.7 146C27.3 141 54.7 131 82 126C109.3 121 136.7 121 163.8 131C191 141 218 161 245.2 174C272.3 187 299.7 193 327 192C354.3 191 381.7 183 409 173C436.3 163 463.7 151 491 158C518.3 165 545.7 191 573 195C600.3 199 627.7 181 654.8 166C682 151 709 139 736.2 146C763.3 153 790.7 179 818 187C845.3 195 872.7 185 886.3 180L900 175L900 0L886.3 0C872.7 0 845.3 0 818 0C790.7 0 763.3 0 736.2 0C709 0 682 0 654.8 0C627.7 0 600.3 0 573 0C545.7 0 518.3 0 491 0C463.7 0 436.3 0 409 0C381.7 0 354.3 0 327 0C299.7 0 272.3 0 245.2 0C218 0 191 0 163.8 0C136.7 0 109.3 0 82 0C54.7 0 27.3 0 13.7 0L0 0Z" fill="#003921"></path><path d="M0 205L13.7 199C27.3 193 54.7 181 82 177C109.3 173 136.7 177 163.8 189C191 201 218 221 245.2 237C272.3 253 299.7 265 327 264C354.3 263 381.7 249 409 234C436.3 219 463.7 203 491 207C518.3 211 545.7 235 573 239C600.3 243 627.7 227 654.8 217C682 207 709 203 736.2 214C763.3 225 790.7 251 818 259C845.3 267 872.7 257 886.3 252L900 247L900 173L886.3 178C872.7 183 845.3 193 818 185C790.7 177 763.3 151 736.2 144C709 137 682 149 654.8 164C627.7 179 600.3 197 573 193C545.7 189 518.3 163 491 156C463.7 149 436.3 161 409 171C381.7 181 354.3 189 327 190C299.7 191 272.3 185 245.2 172C218 159 191 139 163.8 129C136.7 119 109.3 119 82 124C54.7 129 27.3 139 13.7 144L0 149Z" fill="#066547"></path><path d="M0 355L13.7 353C27.3 351 54.7 347 82 345C109.3 343 136.7 343 163.8 352C191 361 218 379 245.2 389C272.3 399 299.7 401 327 397C354.3 393 381.7 383 409 374C436.3 365 463.7 357 491 359C518.3 361 545.7 373 573 375C600.3 377 627.7 369 654.8 364C682 359 709 357 736.2 365C763.3 373 790.7 391 818 393C845.3 395 872.7 381 886.3 374L900 367L900 245L886.3 250C872.7 255 845.3 265 818 257C790.7 249 763.3 223 736.2 212C709 201 682 205 654.8 215C627.7 225 600.3 241 573 237C545.7 233 518.3 209 491 205C463.7 201 436.3 217 409 232C381.7 247 354.3 261 327 262C299.7 263 272.3 251 245.2 235C218 219 191 199 163.8 187C136.7 175 109.3 171 82 175C54.7 179 27.3 191 13.7 197L0 203Z" fill="#039474"></path><path d="M0 427L13.7 423C27.3 419 54.7 411 82 405C109.3 399 136.7 395 163.8 403C191 411 218 431 245.2 444C272.3 457 299.7 463 327 458C354.3 453 381.7 437 409 429C436.3 421 463.7 421 491 424C518.3 427 545.7 433 573 432C600.3 431 627.7 423 654.8 418C682 413 709 411 736.2 419C763.3 427 790.7 445 818 445C845.3 445 872.7 427 886.3 418L900 409L900 365L886.3 372C872.7 379 845.3 393 818 391C790.7 389 763.3 371 736.2 363C709 355 682 357 654.8 362C627.7 367 600.3 375 573 373C545.7 371 518.3 359 491 357C463.7 355 436.3 363 409 372C381.7 381 354.3 391 327 395C299.7 399 272.3 397 245.2 387C218 377 191 359 163.8 350C136.7 341 109.3 341 82 343C54.7 345 27.3 349 13.7 351L0 353Z" fill="#039474"></path><path d="M0 517L13.7 516C27.3 515 54.7 513 82 511C109.3 509 136.7 507 163.8 511C191 515 218 525 245.2 533C272.3 541 299.7 547 327 543C354.3 539 381.7 525 409 519C436.3 513 463.7 515 491 520C518.3 525 545.7 533 573 531C600.3 529 627.7 517 654.8 516C682 515 709 525 736.2 532C763.3 539 790.7 543 818 539C845.3 535 872.7 523 886.3 517L900 511L900 407L886.3 416C872.7 425 845.3 443 818 443C790.7 443 763.3 425 736.2 417C709 409 682 411 654.8 416C627.7 421 600.3 429 573 430C545.7 431 518.3 425 491 422C463.7 419 436.3 419 409 427C381.7 435 354.3 451 327 456C299.7 461 272.3 455 245.2 442C218 429 191 409 163.8 401C136.7 393 109.3 397 82 403C54.7 409 27.3 417 13.7 421L0 425Z" fill="#066547"></path><path d="M0 601L13.7 601C27.3 601 54.7 601 82 601C109.3 601 136.7 601 163.8 601C191 601 218 601 245.2 601C272.3 601 299.7 601 327 601C354.3 601 381.7 601 409 601C436.3 601 463.7 601 491 601C518.3 601 545.7 601 573 601C600.3 601 627.7 601 654.8 601C682 601 709 601 736.2 601C763.3 601 790.7 601 818 601C845.3 601 872.7 601 886.3 601L900 601L900 509L886.3 515C872.7 521 845.3 533 818 537C790.7 541 763.3 537 736.2 530C709 523 682 513 654.8 514C627.7 515 600.3 527 573 529C545.7 531 518.3 523 491 518C463.7 513 436.3 511 409 517C381.7 523 354.3 537 327 541C299.7 545 272.3 539 245.2 531C218 523 191 513 163.8 509C136.7 505 109.3 507 82 509C54.7 511 27.3 513 13.7 514L0 515Z" fill="#003921"></path></svg>